# xmcd CD database file
#
# Track frame offsets:
#	150
#	14122
#	33560
#	45515
#	62370
#	95167
#	113352
#	125820
#	150882
#	171162
#	189505
#
# Disc length: 2802 seconds
#
# Revision: 2
# Processed by: cddbd v1.5.2PL0 Copyright (c) Steve Scherf et al.
# Submitted via: CDex 1.51
#
DISCID=890af00b
DTITLE=Alvin Youngblood Hart - Territory
DYEAR=1998
DGENRE=Blues
TTITLE0=Tallacatcha
TTITLE1=Illinois Blues
TTITLE2=Ouachita Run
TTITLE3=Sallie, Queen of the Pines
TTITLE4=Countrycide
TTITLE5=Ice Rose
TTITLE6=Dancing with Tears in My Eyes
TTITLE7=Mama Don't Allow
TTITLE8=John Hardy
TTITLE9=Just About to Go
TTITLE10=Underway at Seven
EXTD=YEAR: 1998
EXTT0=
EXTT1=
EXTT2=
EXTT3=
EXTT4=
EXTT5=
EXTT6=
EXTT7=
EXTT8=
EXTT9=
EXTT10=
PLAYORDER=
